<svg width="60" height="60" viewBox="0 0 60 60" fill="none" xmlns="http://www.w3.org/2000/svg">
<g clip-path="url(#clip0_313_92)">
<path d="M39.375 -0.000366211C39.8828 -0.000366211 40.3223 0.185181 40.6934 0.556274L59.4434 19.3063C59.8145 19.6774 60 20.1168 60 20.6246C60 21.1324 59.8145 21.5719 59.4434 21.943L52.3242 29.0621C52.8125 29.5504 53.291 30.0192 53.7598 30.4684C54.2285 30.9176 54.6387 31.3766 54.9902 31.8453C55.3418 32.3141 55.6348 32.8414 55.8691 33.4274C56.1035 34.0133 56.2207 34.6676 56.2207 35.3903C56.2207 36.1715 56.0742 36.9137 55.7812 37.6168C55.4883 38.3199 55.0879 38.9352 54.5801 39.4625C54.0723 39.9899 53.4766 40.4098 52.793 40.7223C52.1094 41.0348 51.377 41.2008 50.5957 41.2203C50.5566 42.0211 50.3906 42.7535 50.0977 43.4176C49.8047 44.0817 49.4141 44.6676 48.9258 45.1754C48.4375 45.6832 47.8516 46.0836 47.168 46.3766C46.4844 46.6696 45.752 46.8258 44.9707 46.8453C44.9512 47.6266 44.7852 48.359 44.4727 49.0426C44.1602 49.7262 43.7402 50.3219 43.2129 50.8297C42.6855 51.3375 42.0703 51.7477 41.3672 52.0602C40.6641 52.3727 39.9219 52.5192 39.1406 52.4996C38.5156 52.4996 37.8809 52.3922 37.2363 52.1774C37.0215 52.7828 36.7383 53.3297 36.3867 53.818C36.0352 54.3063 35.6055 54.736 35.0977 55.1071C34.5898 55.4781 34.0527 55.7614 33.4863 55.9567C32.9199 56.152 32.3047 56.2496 31.6406 56.2496C31.1328 56.2496 30.6836 56.2106 30.293 56.1324C29.9023 56.0543 29.541 55.9176 29.209 55.7223C28.877 55.527 28.5449 55.3121 28.2129 55.0778C27.8809 54.8434 27.5391 54.5602 27.1875 54.2281C26.5039 54.8531 25.8398 55.3414 25.1953 55.693C24.5508 56.0446 23.7305 56.2301 22.7344 56.2496C21.9531 56.2496 21.2109 56.1031 20.5078 55.8102C19.8047 55.5172 19.1895 55.1168 18.6621 54.609C18.1348 54.1012 17.7148 53.5055 17.4023 52.8219C17.0898 52.1383 16.9238 51.3961 16.9043 50.5953C16.1426 50.5758 15.4199 50.4196 14.7363 50.1266C14.0527 49.8336 13.457 49.4332 12.9492 48.9254C12.4414 48.4176 12.041 47.8219 11.748 47.1383C11.4551 46.4547 11.2988 45.7321 11.2793 44.9703C10.498 44.9508 9.77539 44.7946 9.11133 44.5016C8.44727 44.2086 7.86133 43.8082 7.35352 43.3004C6.8457 42.7926 6.44531 42.1969 6.15234 41.5133C5.85938 40.8297 5.69336 40.1071 5.6543 39.3453C4.85352 39.3258 4.11133 39.1598 3.42773 38.8473C2.74414 38.5348 2.14844 38.1149 1.64062 37.5875C1.13281 37.0602 0.732422 36.4547 0.439453 35.7711C0.146484 35.0875 0 34.3453 0 33.5446C0 32.7438 0.146484 31.9918 0.439453 31.2887C0.732422 30.5856 1.16211 29.9508 1.72852 29.3844L4.83398 26.2496L0.556641 21.943C0.185547 21.5719 0 21.1324 0 20.6246C0 20.1168 0.185547 19.6774 0.556641 19.3063L19.3066 0.556274C19.6777 0.185181 20.1172 -0.000366211 20.625 -0.000366211C21.1328 -0.000366211 21.5723 0.185181 21.9434 0.556274L25.8105 4.42346C26.0645 4.34534 26.5527 4.17932 27.2754 3.92541C27.998 3.67151 28.8477 3.38831 29.8242 3.07581C30.8008 2.76331 31.8066 2.42151 32.8418 2.05042C33.877 1.67932 34.873 1.34729 35.8301 1.05432C36.7871 0.761352 37.5781 0.507446 38.2031 0.292603C38.8281 0.0777588 39.2188 -0.0198975 39.375 -0.000366211ZM9.14062 28.1246C8.57422 28.1246 8.08594 28.3297 7.67578 28.7399L4.36523 32.0211C3.95508 32.4313 3.75 32.9293 3.75 33.5153C3.75 34.1012 3.94531 34.5895 4.33594 34.9801C4.72656 35.3707 5.22461 35.5758 5.83008 35.5953C6.43555 35.5953 6.93359 35.4 7.32422 35.0094L10.6348 31.7282C11.0449 31.318 11.25 30.8199 11.25 30.234C11.25 29.6481 11.0449 29.15 10.6348 28.7399C10.2246 28.3297 9.72656 28.1246 9.14062 28.1246ZM14.7656 33.7496C14.4922 33.7496 14.2285 33.7985 13.9746 33.8961C13.7207 33.9938 13.4863 34.15 13.2715 34.3649L9.99023 37.6754C9.58008 38.0856 9.375 38.5836 9.375 39.1696C9.375 39.736 9.58008 40.2145 9.99023 40.6051C10.4004 40.9957 10.8984 41.2008 11.4844 41.2203C11.7578 41.2203 12.0215 41.1715 12.2754 41.0739C12.5293 40.9762 12.7637 40.8297 12.9785 40.6344L16.2598 37.3239C16.6699 36.9137 16.875 36.4254 16.875 35.859C16.875 35.2731 16.6699 34.775 16.2598 34.3649C15.8496 33.9547 15.3516 33.7496 14.7656 33.7496ZM20.3906 39.3746C19.8242 39.3746 19.3359 39.5797 18.9258 39.9899L15.6152 43.2711C15.2051 43.6813 15 44.1793 15 44.7653C15 45.3512 15.1953 45.8395 15.5859 46.2301C15.9766 46.6207 16.4746 46.8258 17.0801 46.8453C17.6855 46.8453 18.1836 46.65 18.5742 46.2594L21.8848 42.9781C22.2949 42.568 22.5 42.0699 22.5 41.484C22.5 40.8981 22.2949 40.4 21.8848 39.9899C21.4746 39.5797 20.9766 39.3746 20.3906 39.3746ZM20.625 50.4196C20.625 50.986 20.8301 51.4645 21.2402 51.8551C21.6504 52.2457 22.1484 52.4508 22.7344 52.4703C23.0078 52.4703 23.2715 52.4215 23.5254 52.3239C23.7793 52.2262 24.0137 52.0797 24.2285 51.8844L27.5098 48.5739C27.9199 48.1637 28.125 47.6754 28.125 47.109C28.125 46.5231 27.9199 46.025 27.5098 45.6149C27.0996 45.2047 26.6016 44.9996 26.0156 44.9996C25.7422 44.9996 25.4785 45.0485 25.2246 45.1461C24.9707 45.2438 24.7363 45.4 24.5215 45.6149L21.2402 48.9254C20.8301 49.3356 20.625 49.8336 20.625 50.4196ZM50.3906 37.4996C50.957 37.4996 51.4453 37.2946 51.8555 36.8844C52.2656 36.4742 52.4805 35.986 52.5 35.4196C52.5 34.8336 52.2949 34.3356 51.8848 33.9254L33.3691 15.3805C33.3105 15.3219 33.2129 15.2731 33.0762 15.234C32.9395 15.1949 32.8027 15.1559 32.666 15.1168C32.5293 15.0778 32.3828 15.0485 32.2266 15.0289C32.0703 15.0094 31.9531 14.9996 31.875 14.9996C31.3672 14.9996 30.8887 15.0973 30.4395 15.2926C29.9902 15.4879 29.5898 15.7516 29.2383 16.0836C28.8867 16.4156 28.6133 16.816 28.418 17.2848C28.2227 17.7535 28.125 18.2418 28.125 18.7496C28.125 19.7848 27.9297 20.7516 27.5391 21.65C27.1484 22.5485 26.6113 23.3492 25.9277 24.0524C25.2441 24.7555 24.4531 25.2926 23.5547 25.6637C22.6562 26.0348 21.6797 26.2301 20.625 26.2496C19.8438 26.2496 19.1113 26.1031 18.4277 25.8102C17.7441 25.5172 17.1484 25.1168 16.6406 24.609C16.1328 24.1012 15.7324 23.5055 15.4395 22.8219C15.1465 22.1383 15 21.4059 15 20.6246C15 20.1559 15.0488 19.6383 15.1465 19.0719C15.2441 18.5055 15.4004 17.9977 15.6152 17.5485L21.0938 6.56213C21.2695 6.24963 21.5332 5.99573 21.8848 5.80042L20.625 4.54065L4.51172 20.6246L8.4668 24.5504C9.3457 24.4528 10.1758 24.5114 10.957 24.7262C11.7383 24.941 12.4219 25.3024 13.0078 25.8102C13.5938 26.318 14.0625 26.9332 14.4141 27.6559C14.7656 28.3785 14.9512 29.1891 14.9707 30.0875C15.752 30.1266 16.4844 30.2828 17.168 30.5563C17.8516 30.8297 18.4375 31.2203 18.9258 31.7282C19.4141 32.236 19.8145 32.8219 20.127 33.486C20.4395 34.15 20.5957 34.8922 20.5957 35.7125C21.377 35.7516 22.1094 35.9078 22.793 36.1813C23.4766 36.4547 24.0625 36.8453 24.5508 37.3531C25.0391 37.861 25.4395 38.4469 25.752 39.111C26.0645 39.775 26.2207 40.5172 26.2207 41.3375C27.0215 41.3766 27.7637 41.5426 28.4473 41.8356C29.1309 42.1285 29.7266 42.5289 30.2344 43.0367C30.7422 43.5446 31.1426 44.15 31.4355 44.8531C31.7285 45.5563 31.875 46.3082 31.875 47.109C31.875 47.9879 31.6992 48.8082 31.3477 49.5699C30.9961 50.3317 30.4883 50.9957 29.8242 51.5621C30.1172 51.8356 30.3809 52.0602 30.6152 52.236C30.8496 52.4117 31.1914 52.4996 31.6406 52.4996C32.207 52.4996 32.6953 52.2946 33.1055 51.8844C33.5156 51.4742 33.7305 50.986 33.75 50.4196C33.75 49.8336 33.5449 49.3356 33.1348 48.9254L35.7715 46.2594L37.6758 48.1344C38.125 48.5446 38.6133 48.7496 39.1406 48.7496C39.707 48.7496 40.1953 48.5446 40.6055 48.1344C41.0156 47.7242 41.2305 47.236 41.25 46.6696C41.25 46.0836 41.0449 45.5856 40.6348 45.1754L37.3242 41.8649L39.9902 39.2281L43.2715 42.5094C43.6816 42.9196 44.1797 43.1246 44.7656 43.1246C45.3516 43.1246 45.8496 42.9196 46.2598 42.5094C46.6699 42.0992 46.875 41.6012 46.875 41.0153C46.875 40.4293 46.6699 39.9313 46.2598 39.5211L42.9492 36.2399L45.6152 33.5739L48.9258 36.8844C49.3359 37.2946 49.8242 37.4996 50.3906 37.4996ZM55.459 20.6246L38.877 4.01331L24.1113 8.93518L19.0137 19.1305C18.916 19.3063 18.8477 19.5504 18.8086 19.8629C18.7695 20.1754 18.75 20.4293 18.75 20.6246C18.75 21.1324 18.9355 21.5719 19.3066 21.943C19.6777 22.3141 20.1172 22.4996 20.625 22.4996C21.1523 22.4996 21.6406 22.402 22.0898 22.2067C22.5391 22.0114 22.9297 21.7477 23.2617 21.4156C23.5938 21.0836 23.8672 20.6832 24.082 20.2145C24.2969 19.7457 24.3945 19.2574 24.375 18.7496C24.375 17.7145 24.5703 16.7477 24.9609 15.8492C25.3516 14.9508 25.8887 14.15 26.5723 13.4469C27.2559 12.7438 28.0469 12.2067 28.9453 11.8356C29.8438 11.4645 30.8203 11.2692 31.875 11.2496C32.1875 11.2496 32.5195 11.2789 32.8711 11.3375C33.2227 11.3961 33.5938 11.4742 33.9844 11.5719C34.375 11.6696 34.7168 11.8063 35.0098 11.9821C35.3027 12.1578 35.5859 12.3629 35.8594 12.5973L49.6875 26.4254L55.459 20.6246Z" fill="#2B2B2B"/>
</g>
<defs>
<clipPath id="clip0_313_92">
<rect width="60" height="60" fill="white"/>
</clipPath>
</defs>
</svg>
