<svg width="60" height="60" viewBox="0 0 60 60" fill="none" xmlns="http://www.w3.org/2000/svg">
<path d="M26.25 38.75C26.25 39.675 26 40.5 25.55 41.25C24.7 39.775 23.1 38.75 21.25 38.75C19.4 38.75 17.8 39.775 16.95 41.25C16.525 40.5 16.25 39.675 16.25 38.75C16.25 36 18.5 33.75 21.25 33.75C24 33.75 26.25 36 26.25 38.75ZM57.5 37.5V45C57.5 46.375 56.375 47.5 55 47.5H52.5V50C52.5 52.775 50.275 55 47.5 55H12.5C11.1739 55 9.90215 54.4732 8.96447 53.5355C8.02678 52.5979 7.5 51.3261 7.5 50V47.5H5C3.625 47.5 2.5 46.375 2.5 45V37.5C2.5 36.125 3.625 35 5 35H7.5C7.5 25.325 15.325 17.5 25 17.5H27.5V14.325C26 13.475 25 11.85 25 10C25 7.25 27.25 5 30 5C32.75 5 35 7.25 35 10C35 11.85 34 13.475 32.5 14.325V17.5H35C44.675 17.5 52.5 25.325 52.5 35H55C56.375 35 57.5 36.125 57.5 37.5ZM52.5 40H47.5V35C47.5 28.1 41.9 22.5 35 22.5H25C18.1 22.5 12.5 28.1 12.5 35V40H7.5V42.5H12.5V50H47.5V42.5H52.5V40ZM38.75 33.75C36 33.75 33.75 36 33.75 38.75C33.75 39.675 34.025 40.5 34.45 41.25C35.3 39.775 36.9 38.75 38.75 38.75C40.6 38.75 42.2 39.775 43.05 41.25C43.5 40.5 43.75 39.675 43.75 38.75C43.75 37.4239 43.2232 36.1521 42.2855 35.2145C41.3479 34.2768 40.0761 33.75 38.75 33.75Z" fill="#F4F4F4"/>
</svg>
