<svg width="60" height="60" viewBox="0 0 60 60" fill="none" xmlns="http://www.w3.org/2000/svg">
<path d="M38.75 35L51.25 47.5L47.5 51.25L35 38.75V36.775L34.325 36.075C31.3852 38.6099 27.6318 40.003 23.75 40C19.4402 40 15.307 38.288 12.2595 35.2405C9.21205 32.193 7.5 28.0598 7.5 23.75C7.5 19.4402 9.21205 15.307 12.2595 12.2595C15.307 9.21205 19.4402 7.5 23.75 7.5C28.0598 7.5 32.193 9.21205 35.2405 12.2595C38.288 15.307 40 19.4402 40 23.75C40 27.775 38.525 31.475 36.075 34.325L36.775 35H38.75ZM23.75 11.25L22.375 11.325C21.775 12.625 20.85 14.825 20.175 17.5H27.325C26.65 14.825 25.725 12.625 25.125 11.325C24.675 11.25 24.225 11.25 23.75 11.25ZM34.575 17.5C33.0888 14.8985 30.7076 12.9261 27.875 11.95C28.475 13.275 29.25 15.2 29.825 17.5H34.575ZM12.925 17.5H17.675C18.25 15.2 19.025 13.275 19.625 11.95C16.7924 12.9261 14.4112 14.8985 12.925 17.5ZM11.25 23.75C11.25 25 11.45 26.325 11.825 27.5H17.175L16.875 23.75L17.175 20H11.825C11.45 21.175 11.25 22.5 11.25 23.75ZM35.675 27.5C36.05 26.325 36.25 25 36.25 23.75C36.25 22.5 36.05 21.175 35.675 20H30.325C30.7222 22.4842 30.7222 25.0158 30.325 27.5H35.675ZM19.675 20L19.375 23.75L19.675 27.5H27.825C28.2222 25.0158 28.2222 22.4842 27.825 20H19.675ZM23.75 36.25C24.2 36.25 24.65 36.25 25.075 36.175C25.7 34.875 26.65 32.675 27.325 30H20.175C20.85 32.675 21.8 34.875 22.425 36.175L23.75 36.25ZM34.575 30H29.825C29.25 32.3 28.475 34.225 27.875 35.55C30.7076 34.5739 33.0888 32.6015 34.575 30ZM12.925 30C14.4112 32.6015 16.7924 34.5739 19.625 35.55C19.025 34.225 18.25 32.3 17.675 30H12.925Z" fill="black"/>
</svg>
